<?xml version="1.0" standalone="no"?>
<!DOCTYPE svg PUBLIC "-//W3C//DTD SVG 1.1//EN" "http://www.w3.org/Graphics/SVG/1.1/DTD/svg11.dtd" >
<svg xmlns="http://www.w3.org/2000/svg">
<metadata>
This is a custom SVG webfont generated by Font Squirrel.
Copyright   : Copyright c 2009 by Alexander Kalachev Alexey Maslov Jovanny Lemonad All rights reserved
Designer    : Alexander Kalachev Alexey Maslov Jovanny Lemonad
Foundry     : Alexander Kalachev Alexey Maslov Jovanny Lemonad
Foundry URL : wwwintelligentdeisgnru
</metadata>
<defs>
<font id="DaysRegular" horiz-adv-x="1708" >
<font-face units-per-em="2048" ascent="1638" descent="-410" />
<missing-glyph horiz-adv-x="716" />
<glyph unicode=" "  horiz-adv-x="716" />
<glyph unicode="&#x09;" horiz-adv-x="716" />
<glyph unicode="&#xa0;" horiz-adv-x="716" />
<glyph unicode="!" horiz-adv-x="653" d="M125 1339q-2 39 26.5 67t67.5 28h215q39 0 67.5 -28t26.5 -67l-28 -821q-2 -39 -29 -65.5t-65 -26.5h-158q-39 0 -65.5 26.5t-28.5 65.5zM131 125v63q0 66 35 101t100 35h123q66 0 100.5 -35t34.5 -101v-63q0 -63 -34.5 -99t-100.5 -36h-123q-66 0 -100.5 36t-34.5 99z " />
<glyph unicode="&#x22;" horiz-adv-x="806" d="M63 1352q-2 35 20.5 58.5t59.5 23.5h131q37 0 59.5 -24t20.5 -58l-30 -426q-4 -37 -27 -59.5t-57 -22.5h-62q-35 0 -57.5 22.5t-26.5 59.5zM453 1352q-2 35 20.5 58.5t58.5 23.5h132q37 0 59 -24t20 -58l-30 -426q-4 -37 -26.5 -59.5t-57.5 -22.5h-62q-35 0 -57.5 22.5 t-26.5 59.5z" />
<glyph unicode="#" horiz-adv-x="1714" d="M41 389v119q2 27 18.5 44t42.5 17h217l84 295h-210q-27 0 -44.5 17.5t-17.5 44.5v118q0 27 17.5 44.5t44.5 17.5h278l68 233q27 94 163 95h115q37 0 51 -27q8 -16 9 -36q0 -15 -5 -32l-67 -233h297l67 233q27 94 164 95h115q37 0 51 -27q8 -16 9 -36q0 -15 -5 -32 l-67 -233h176q27 0 43 -17.5t18 -44.5v-118q-2 -27 -18.5 -44.5t-42.5 -17.5h-244l-84 -295h211q27 0 44 -17t17 -44v-119q0 -27 -16 -44t-43 -17h-280l-66 -234q-27 -94 -164 -94h-115q-37 0 -51 27q-8 16 -8 36q0 15 4 31l66 234h-297l-66 -234q-27 -94 -164 -94h-114 q-37 0 -52 27q-8 16 -8 36q0 15 4 31l66 234h-150q-27 0 -44 17t-17 44zM645 563h309l86 307h-309z" />
<glyph unicode="$" horiz-adv-x="1595" d="M61 360q0 59 35 85t68 26h119q90 0 135 -94q49 -102 213 -103h8v318q-94 20 -167 41.5t-151.5 57.5t-129 80t-84 108.5t-33.5 144.5q0 190 128 296.5t437 119.5v94q0 27 17.5 44t43.5 17h74v-153h55v153h74q27 0 44.5 -17t17.5 -44v-92q203 -2 367.5 -107.5t164.5 -261.5 q0 -59 -35 -84.5t-67 -25.5h-119q-90 0 -135 94q-43 90 -176 100v-313q121 -27 209 -56.5t177 -79t136 -125t47 -173.5q0 -190 -129 -298t-440 -118v-94q0 -27 -17.5 -44.5t-44.5 -17.5h-74v154h-55v-154h-74q-27 0 -44 17.5t-17 44.5v92h-43q-205 0 -370 105t-165 263z M451 1044q0 -80 188 -131v246h-12q-176 0 -176 -115zM774 274h55v277l-55 10v-287zM774 883l55 -11v287h-55v-276zM965 274h16q176 0 176 115q0 80 -192 131v-246z" />
<glyph unicode="%" horiz-adv-x="1714" d="M61 1122.5q0 153.5 99.5 242.5t249 89t249 -89t99.5 -242.5t-99.5 -242.5t-249 -89t-249 89t-99.5 242.5zM159 31q-3 9 -4 18q0 22 19 45l997 1245q74 94 175 95h159q39 0 50 -31q3 -9 4 -19q0 -22 -19 -45l-997 -1245q-74 -94 -174 -94h-160q-39 0 -50 31zM295 1122.5 q0 -67.5 30.5 -106.5t84 -39t84 39t30.5 106.5t-30.5 106.5t-84 39t-84 -39t-30.5 -106.5zM956 313.5q0 153.5 99.5 242.5t249 89t249 -89t99.5 -242.5t-99.5 -242.5t-249 -89t-249 89t-99.5 242.5zM1190 313.5q0 -67.5 30.5 -106.5t84 -39t84 39t30.5 106.5t-30.5 106.5 t-84 39t-84 -39t-30.5 -106.5z" />
<glyph unicode="&#x26;" horiz-adv-x="1560" d="M61 424q0 279 240 389q-90 98 -90 234q0 174 139 290.5t391 116.5q254 0 399.5 -88t145.5 -260q0 -27 -17.5 -44.5t-43.5 -17.5h-133q-68 0 -115 74q-59 94 -232 94q-88 0 -137 -38.5t-49 -108.5q0 -72 44 -133.5t128 -132.5l346 -301l99 141q21 29 46 28q17 0 35 -12 l109 -73q30 -22 30 -49q0 -18 -14 -37l-120 -172l256 -230q21 -20 21 -42q0 -10 -4 -19q-13 -33 -52 -33h-228q-43 0 -81.5 16.5t-61 34t-61.5 53.5q-195 -125 -433 -124q-268 0 -412.5 118.5t-144.5 325.5zM397 424q0 -203 246 -203q123 0 211 60l-356 321 q-101 -49 -101 -178z" />
<glyph unicode="'" horiz-adv-x="417" d="M63 1352q-2 35 20.5 58.5t59.5 23.5h131q37 0 59.5 -24t20.5 -58l-30 -426q-4 -37 -27 -59.5t-57 -22.5h-62q-35 0 -57.5 22.5t-26.5 59.5z" />
<glyph unicode="(" horiz-adv-x="665" d="M61 624.5q0 268.5 110 505t327 379.5q14 10 28 10q8 0 16 -2q24 -7 38 -30l57 -94q6 -10 6 -22q0 -26 -31 -60q-240 -293 -239.5 -686.5t239.5 -685.5q31 -35 31 -61q0 -12 -6 -21l-57 -95q-14 -23 -38 -29q-8 -2 -16 -3q-15 0 -28 10q-217 143 -327 379.5t-110 505z" />
<glyph unicode=")" horiz-adv-x="665" d="M29 -143q-6 10 -7 21q0 26 31 61q240 293 240 686t-240 686q-31 35 -31 60q0 12 7 22l57 94q14 23 38 30q8 2 15 2q15 0 29 -10q217 -143 326.5 -379.5t109.5 -505t-109.5 -505t-326.5 -379.5q-14 -10 -29 -10q-8 0 -15 3q-24 7 -38 29z" />
<glyph unicode="*" horiz-adv-x="872" d="M66 931q6 26 28 38l144 75l-144 76q-23 12 -28 38q-2 9 -3 17q0 16 9 29l41 76q12 23 35.5 30t48.5 -7l133 -82l-2 157q0 25 17 40.5t44 15.5h94q27 0 44.5 -15.5t17.5 -40.5l-2 -157l133 82q25 14 48.5 7t35.5 -30l41 -76q8 -14 8 -29q0 -8 -2 -17q-6 -26 -29 -38 l-143 -76l143 -75q23 -12 29 -38q2 -9 2 -17q0 -16 -8 -29l-41 -76q-12 -23 -36 -30t-48 7l-133 82l2 -157q0 -25 -17.5 -40.5t-44.5 -15.5h-94q-27 0 -44 15.5t-17 40.5l2 157l-133 -82q-25 -14 -48.5 -7t-35.5 30l-41 76q-8 14 -9 29q1 8 3 17z" />
<glyph unicode="+" horiz-adv-x="958" d="M41 569v119q0 27 17.5 44.5t43.5 17.5h250v249q0 27 17.5 44.5t44.5 17.5h118q27 0 44.5 -17.5t17.5 -44.5v-249h262q27 0 44.5 -17.5t17.5 -44.5v-119q0 -27 -17.5 -44t-44.5 -17h-262v-262q0 -27 -17.5 -44.5t-44.5 -17.5h-118q-27 0 -44.5 17.5t-17.5 44.5v262h-250 q-27 0 -44 17t-17 44z" />
<glyph unicode="," horiz-adv-x="550" d="M47 -113l59 322q8 47 54.5 81t97.5 34h82q80 0 112 -42q17 -22 16 -53q0 -27 -13 -61l-119 -301q-20 -49 -62.5 -82t-95.5 -33h-39q-63 0 -84 33q-13 20 -13 55q0 21 5 47z" />
<glyph unicode="-" horiz-adv-x="958" d="M41 569v119q0 27 17.5 44.5t43.5 17.5h754q27 0 44.5 -17.5t17.5 -44.5v-119q0 -27 -17.5 -44t-44.5 -17h-754q-27 0 -44 17t-17 44z" />
<glyph unicode="." horiz-adv-x="557" d="M82 125v63q0 66 35 101t100 35h123q66 0 100.5 -35t34.5 -101v-63q0 -63 -34.5 -99t-100.5 -36h-123q-66 0 -100.5 36t-34.5 99z" />
<glyph unicode="/" horiz-adv-x="1054" d="M3 29q-3 9 -3 18q0 22 14 47l650 1245q47 94 174 95h168q37 0 46 -29q3 -9 3 -19q0 -22 -15 -47l-649 -1245q-47 -94 -174 -94h-168q-37 0 -46 29z" />
<glyph unicode="0" horiz-adv-x="1630" d="M61 717q0 201 55.5 345t157 225t226.5 118t280 37h70q156 0 280.5 -37t226 -118t157 -225t55.5 -345t-55.5 -345.5t-157 -225t-226 -117.5t-280.5 -37h-70q-156 0 -280.5 37t-226 117.5t-157 225t-55.5 345.5zM438 716.5q0 -442.5 377 -442.5t377 442.5t-377 442.5 t-377 -442.5z" />
<glyph unicode="1" horiz-adv-x="798" d="M0 1085q-12 17 -12 35q0 28 32 56l244 210q53 47 148 48h147q41 0 68.5 -28t27.5 -67v-1245q0 -39 -28.5 -66.5t-67.5 -27.5h-186q-39 0 -66.5 26.5t-27.5 65.5v967l-115 -84q-20 -14 -46 -9t-42 23z" />
<glyph unicode="2" horiz-adv-x="1437" d="M61 94v146q0 127 52.5 220t134.5 146t182 91t200.5 61.5t182.5 48t134 63.5t52 95q0 113 -58 153.5t-196 40.5h-71q-193 0 -254 -123q-45 -94 -135 -94h-119q-18 0 -38.5 7t-42.5 35t-22 69q0 115 87.5 206t217.5 137t271 46h135q133 0 236.5 -22.5t188.5 -74t131 -147.5 t46 -233q0 -117 -52 -206t-134 -141.5t-182.5 -90.5t-200.5 -62.5t-182 -47t-134.5 -56t-52.5 -78.5h830q41 0 68.5 -28t27.5 -67v-94q0 -39 -28.5 -66.5t-67.5 -27.5h-1110q-39 0 -68 27.5t-29 66.5z" />
<glyph unicode="3" horiz-adv-x="1480" d="M51 391q0 59 35 85t68 26h118q92 0 144 -111q55 -117 246 -117h143q123 0 180 35t57 119t-57 119t-180 35h-180q-39 0 -67 27.5t-28 66.5v82q0 37 27 65.5t64 28.5h147q133 0 193.5 35t60.5 119t-60.5 118.5t-193.5 34.5h-74q-193 0 -254 -123q-45 -94 -135 -94h-119 q-18 0 -38.5 7t-42 35t-21.5 69q0 115 87 206t217 137t271 46h138q602 0 602 -438q0 -182 -137 -287q158 -98 157 -289q0 -231 -147.5 -333.5t-431.5 -102.5h-213q-223 0 -399.5 110.5t-176.5 288.5z" />
<glyph unicode="4" horiz-adv-x="1556" d="M20 346v119q0 88 62 156l661 751q55 61 156 62h313q41 0 69 -28t28 -67v-804h110q41 0 69 -28t28 -67v-94q0 -39 -29 -66.5t-68 -27.5h-110v-158q0 -39 -29 -66.5t-68 -27.5h-186q-39 0 -66.5 26.5t-27.5 65.5v160h-815q-39 0 -68 27.5t-29 66.5zM422 535h510v579z" />
<glyph unicode="5" horiz-adv-x="1484" d="M82 346q0 59 35 85t67 26h119q84 0 135 -95q49 -88 213 -88h158q123 0 180.5 39t57.5 133.5t-57.5 133t-180.5 38.5h-582q-39 0 -66.5 27t-27.5 66v628q0 41 27.5 68t66.5 27h1030q41 0 68 -27t27 -68v-94q0 -41 -27 -67.5t-68 -26.5h-747v-250h334q285 0 432 -106.5 t147 -348t-147.5 -348t-431.5 -106.5h-228q-225 0 -379.5 101t-154.5 253z" />
<glyph unicode="6" horiz-adv-x="1521" d="M82 483v443q0 285 144.5 400.5t430.5 115.5h254q225 0 376 -99.5t151 -248.5q0 -59 -35 -85t-68 -26h-118q-78 0 -136 94q-49 82 -204 82h-185q-123 0 -178 -49t-55 -184v-37h422q285 0 432 -103.5t147 -345t-147.5 -345t-431.5 -103.5h-219q-289 0 -434.5 110.5 t-145.5 380.5zM459 483q0 -123 55 -166t182 -43h150q123 0 180 36t57 130.5t-57 130t-180 35.5h-387v-123z" />
<glyph unicode="7" horiz-adv-x="1304" d="M20 1245v94q0 39 29 67t68 28h1071q39 0 67.5 -28t28.5 -67v-92q0 -70 -61 -182l-525 -971q-51 -94 -131 -94h-205q-41 0 -57 26.5t0 57.5l578 1067h-766q-41 0 -69 27.5t-28 66.5z" />
<glyph unicode="8" horiz-adv-x="1548" d="M61 430q0 229 193 332q-135 111 -135 264q0 111 45 194t125 130t177 69.5t214 22.5h188q117 0 214.5 -22.5t177 -69.5t125 -130t45.5 -194q0 -154 -136 -264q193 -102 193 -332q0 -211 -160 -324.5t-412 -113.5h-282q-252 0 -412 113.5t-160 324.5zM438 432 q0 -88 57.5 -123t180.5 -35h196q123 0 180.5 35t57.5 123t-57.5 123t-180.5 35h-196q-123 0 -180.5 -35t-57.5 -123zM483 1012q0 -80 57.5 -114t180.5 -34h102q123 0 180.5 34t57.5 114t-57.5 113.5t-180.5 33.5h-102q-123 0 -180.5 -33.5t-57.5 -113.5z" />
<glyph unicode="9" horiz-adv-x="1521" d="M61 993.5q0 241.5 147.5 345t432.5 103.5h219q289 0 434.5 -110.5t145.5 -381.5v-442q0 -285 -144.5 -400.5t-431.5 -115.5h-254q-225 0 -375.5 99t-150.5 249q0 59 35 85t67 26h119q78 0 135 -95q49 -82 205 -82h184q123 0 178.5 49.5t55.5 184.5v37h-422 q-285 0 -432.5 103.5t-147.5 345zM438 993q0 -94 57.5 -130t180.5 -36h387v123q0 123 -55.5 166t-182.5 43h-149q-123 0 -180.5 -36t-57.5 -130z" />
<glyph unicode=":" horiz-adv-x="557" d="M82 125v63q0 66 35 101t100 35h123q66 0 100.5 -35t34.5 -101v-63q0 -63 -34.5 -99t-100.5 -36h-123q-66 0 -100.5 36t-34.5 99zM82 918v63q0 63 35 99t100 36h123q66 0 100.5 -36t34.5 -99v-63q0 -66 -34.5 -101t-100.5 -35h-123q-66 0 -100.5 35t-34.5 101z" />
<glyph unicode=";" horiz-adv-x="561" d="M47 -113l59 322q8 47 54.5 81t97.5 34h82q80 0 112 -42q17 -22 16 -53q0 -27 -13 -61l-119 -301q-20 -49 -62.5 -82t-95.5 -33h-39q-63 0 -84 33q-13 20 -13 55q0 21 5 47zM86 918v63q0 63 35 99t100 36h123q66 0 100.5 -36t34.5 -99v-63q0 -66 -34.5 -101t-100.5 -35 h-123q-66 0 -100.5 35t-34.5 101z" />
<glyph unicode="&#x3c;" horiz-adv-x="860" d="M61 522v49q0 66 60 109l569 403q35 23 61.5 9.5t26.5 -50.5v-172q0 -74 -88 -135l-266 -188l266 -189q88 -61 88 -135v-172q0 -37 -26.5 -50t-61.5 9l-569 404q-60 42 -60 108z" />
<glyph unicode="=" horiz-adv-x="999" d="M61 354v119q0 27 17.5 44.5t44.5 17.5h754q27 0 44 -17.5t17 -44.5v-119q0 -27 -17.5 -44t-43.5 -17h-754q-27 0 -44.5 17t-17.5 44zM61 776v119q0 27 17.5 44t44.5 17h754q27 0 44 -17t17 -44v-119q0 -27 -17.5 -44t-43.5 -17h-754q-27 0 -44.5 17t-17.5 44z" />
<glyph unicode="&#x3e;" horiz-adv-x="860" d="M82 51v172q0 74 88 135l266 189l-266 188q-88 61 -88 135v172q0 37 27 51q10 5 20 5q19 0 41 -15l569 -403q59 -43 60 -109v-49q0 -66 -60 -108l-569 -404q-22 -14 -41 -14q-11 0 -20 5q-27 13 -27 50z" />
<glyph unicode="?" horiz-adv-x="1341" d="M41 1053q0 170 172 279.5t377 109.5h115q575 0 575 -447q0 -100 -48 -173.5t-118 -112.5t-139.5 -70t-117.5 -67.5t-48 -84.5q0 -27 -17.5 -44t-43.5 -17h-226q-27 0 -44 17.5t-17 43.5q0 86 32.5 152t82 103.5t106.5 70.5t106.5 55.5t82 55t32.5 71.5q0 86 -54 125 t-173 39h-51q-166 0 -228 -123q-45 -94 -135 -94h-119q-18 0 -38.5 7t-42 35t-21.5 69zM440 125v63q0 66 36 101t99 35h123q63 0 99.5 -35t36.5 -101v-63q0 -63 -36 -99t-100 -36h-123q-63 0 -99 36t-36 99z" />
<glyph unicode="@" horiz-adv-x="1699" d="M61 655.5q0 374.5 218.5 586.5t590.5 212q358 0 563 -167t205 -521q0 -217 -117.5 -354.5t-355.5 -137.5h-96q-18 0 -30.5 12.5t-12.5 28.5v23q-106 -76 -248 -76q-143 0 -233 62.5t-90 177.5q0 113 90 174t233 61h226q0 80 -33 112t-107 32q-92 0 -133 -45 q-25 -37 -78 -37h-102q-16 0 -28.5 11t-12.5 30q0 197 373 196q162 0 261 -73.5t99 -225.5v-268q139 0 139 297q0 240 -135 353.5t-377 113.5q-260 0 -406.5 -159t-146.5 -419t147.5 -418.5t405.5 -158.5q135 0 217 15.5t103 15.5h29q27 0 44 -19.5t17 -46.5v-94 q0 -23 -17.5 -40.5t-43.5 -21.5q-154 -31 -349 -30q-373 0 -591 212t-218 586.5zM690 502q0 -39 30 -62.5t83 -23.5q106 0 201 61v107h-207q-49 0 -78 -23.5t-29 -58.5z" />
<glyph unicode="A" d="M25 92l251 952q102 389 664 390h539q37 0 61.5 -28t24.5 -65v-1249q0 -39 -28 -65.5t-67 -26.5h-188q-41 0 -67.5 26.5t-26.5 67.5v252h-711l-67 -252q-10 -41 -45 -67.5t-74 -26.5h-197q-39 0 -59 27q-14 18 -14 41q1 11 4 24zM551 629h637v522h-285q-96 0 -167.5 -54.5 t-96.5 -146.5z" />
<glyph unicode="B" horiz-adv-x="1689" d="M143 1339q0 39 28 67t67 28h813q137 0 249.5 -38t191.5 -133.5t79 -236.5q0 -154 -135 -264q193 -102 192 -332q0 -205 -153.5 -317.5t-376.5 -112.5h-860q-39 0 -67 27.5t-28 66.5v1245zM520 270h572q78 0 118.5 46t40.5 126t-41 126t-118 46h-572v-344zM520 877h535 q63 0 101 37.5t38 105t-38 105.5t-101 38h-535v-286z" />
<glyph unicode="C" horiz-adv-x="1673" d="M61 716.5q0 370.5 185.5 548t556.5 177.5h223q227 0 401.5 -118t174.5 -323q0 -59 -35 -84.5t-68 -25.5h-119q-92 0 -143 110q-74 158 -246 158h-178q-219 0 -297 -94t-78 -348t78 -348.5t297 -94.5h199q172 0 245 158q51 111 144 111h119q18 0 38.5 -7.5t42 -35 t21.5 -68.5q0 -205 -174 -322.5t-401 -117.5h-244q-371 0 -556.5 177t-185.5 547.5z" />
<glyph unicode="D" horiz-adv-x="1687" d="M143 92v1245q0 41 28 69t67 28h559q434 0 631.5 -173.5t197.5 -544t-197.5 -543.5t-631.5 -173h-559q-39 0 -67 26.5t-28 65.5zM520 283h266q268 0 365.5 98t97.5 335.5t-97 336t-366 98.5h-266v-868z" />
<glyph unicode="E" horiz-adv-x="1525" d="M143 96v1245q0 39 28 66t67 27h1153q39 0 66.5 -28t27.5 -67v-94q0 -39 -27.5 -66.5t-66.5 -27.5h-871v-291h750q39 0 66.5 -27.5t27.5 -66.5v-94q0 -39 -27.5 -66.5t-66.5 -27.5h-750v-295h869q39 0 65.5 -27t26.5 -66v-96q0 -39 -28 -66.5t-67 -27.5h-1148 q-39 0 -67 27.5t-28 68.5z" />
<glyph unicode="F" horiz-adv-x="1505" d="M143 96v1245q0 39 28 66t67 27h1153q39 0 66.5 -28t27.5 -67v-94q0 -39 -27.5 -66.5t-66.5 -27.5h-871v-352h709q39 0 66.5 -28t27.5 -66v-95q0 -39 -27.5 -66.5t-66.5 -27.5h-709v-420q0 -41 -27.5 -68.5t-66.5 -27.5h-188q-39 0 -67 27.5t-28 68.5z" />
<glyph unicode="G" horiz-adv-x="1695" d="M61 717q0 371 185.5 548t556.5 177h223q221 0 398.5 -105.5t177.5 -263.5q0 -59 -35 -84.5t-68 -25.5h-119q-86 0 -135 94q-53 102 -254 102h-178q-219 0 -297 -94t-78 -348q0 -250 70 -346.5t250 -96.5h205q162 0 230.5 61.5t70.5 176.5h-226q-39 0 -66.5 27.5 t-27.5 66.5v78q0 39 27.5 66.5t66.5 27.5h502q39 0 66.5 -27.5t27.5 -66.5v-111q0 -281 -168 -431t-493 -150h-225q-332 0 -509.5 179t-177.5 546z" />
<glyph unicode="H" horiz-adv-x="1728" d="M143 94v1245q0 39 28 67t69 28h186q39 0 66.5 -28t27.5 -67v-450h688v450q0 39 28 67t67 28h186q41 0 68.5 -28t27.5 -67v-1245q0 -39 -28.5 -66.5t-67.5 -27.5h-186q-39 0 -67 26.5t-28 65.5v514h-688v-514q0 -39 -27.5 -65.5t-66.5 -26.5h-186q-39 0 -68 27.5t-29 66.5 z" />
<glyph unicode="I" horiz-adv-x="663" d="M143 92v1247q0 39 28 67t67 28h186q41 0 68.5 -28t27.5 -67v-1245q0 -39 -28.5 -66.5t-67.5 -27.5h-186q-39 0 -67 26.5t-28 65.5z" />
<glyph unicode="J" horiz-adv-x="1130" d="M0 94v113q0 39 26.5 66.5t67.5 27.5h33q27 0 82 -9t86 -9h72q139 0 201.5 57t62.5 192v807q0 39 27.5 67t66.5 28h186q41 0 69 -28t28 -67v-804q0 -256 -170 -395.5t-461 -139.5h-283q-39 0 -66.5 27.5t-27.5 66.5z" />
<glyph unicode="K" horiz-adv-x="1628" d="M143 96v1243q0 39 28 68t67 29h188q39 0 66.5 -29t27.5 -68v-479h215q88 0 154.5 48t126.5 155l155 276q53 96 144 97h231q39 0 46 -28q2 -7 2 -14q0 -23 -17 -55l-217 -393q-47 -86 -105.5 -142t-152.5 -79q66 -14 135.5 -83t122.5 -150l250 -398q17 -29 17 -50 q0 -9 -3 -17q-10 -27 -49 -27h-229q-39 0 -84 27.5t-70 66.5l-176 279q-63 102 -127 153.5t-154 51.5h-215v-486q0 -39 -27.5 -65.5t-66.5 -26.5h-188q-39 0 -67 28.5t-28 67.5z" />
<glyph unicode="L" horiz-adv-x="1505" d="M143 92v1245q0 41 28 69t67 28h188q39 0 66.5 -28t27.5 -69v-1054h871q39 0 66.5 -28t27.5 -67v-94q0 -39 -27.5 -66.5t-66.5 -27.5h-1153q-39 0 -67 26.5t-28 65.5z" />
<glyph unicode="M" horiz-adv-x="2117" d="M143 96v1241q0 41 27 69t66 28h407q39 0 74 -28t47 -67l295 -854l295 854q12 39 47 67t74 28h407q39 0 65.5 -28t26.5 -69v-1241q0 -41 -27.5 -68.5t-66.5 -27.5h-180q-39 0 -66.5 27.5t-27.5 68.5v977l-353 -983q-14 -37 -49 -63.5t-74 -26.5h-143q-39 0 -73.5 26.5 t-49.5 63.5l-352 983v-977q0 -41 -27.5 -68.5t-66.5 -27.5h-180q-39 0 -67 27.5t-28 68.5z" />
<glyph unicode="N" horiz-adv-x="1775" d="M143 94v1245q0 39 27 67t66 28h294q35 0 74 -28t64 -67l604 -929v931q0 39 27.5 66t66.5 27h172q39 0 66.5 -27t27.5 -68v-1245q0 -39 -27.5 -66.5t-66.5 -27.5h-332q-39 0 -80 27.5t-65 66.5l-553 858v-858q0 -39 -27.5 -66.5t-66.5 -27.5h-176q-39 0 -67 27.5t-28 66.5 z" />
<glyph unicode="O" horiz-adv-x="1732" d="M61 717q0 389 205 568t600.5 179t600 -179t204.5 -568t-204.5 -568.5t-600 -179.5t-600.5 179.5t-205 568.5zM438 716.5q0 -237.5 101.5 -357t327 -119.5t326.5 119.5t101 357t-101 357.5t-326.5 120t-327 -120t-101.5 -357.5z" />
<glyph unicode="P" horiz-adv-x="1644" d="M143 94v1245q0 39 27 67t66 28h763q604 0 604.5 -557.5t-604.5 -557.5h-479v-225q0 -39 -27.5 -66.5t-66.5 -27.5h-188q-39 0 -67 27.5t-28 66.5zM520 602h365q168 0 255 56.5t87 218t-87 218t-255 56.5h-365v-549z" />
<glyph unicode="Q" horiz-adv-x="1728" d="M61 727q0 381 205 559t600 178q399 0 602 -169t203 -547q0 -96 -19.5 -179.5t-58.5 -147t-60.5 -92t-57.5 -69.5h159q41 0 68 -27.5t27 -66.5v-82q0 -39 -27 -66.5t-68 -27.5h-768q-395 0 -600 178t-205 559zM438 727q0 -229 102.5 -348t325.5 -119q428 0 428 488 q0 227 -101 336.5t-327 109.5q-223 0 -325.5 -119t-102.5 -348z" />
<glyph unicode="R" horiz-adv-x="1654" d="M143 94v1245q0 39 27 67t66 28h825q229 0 375.5 -123t146.5 -332q0 -291 -377 -365q59 -23 110.5 -76t117.5 -155l182 -289q17 -29 17 -50q0 -9 -3 -17q-10 -27 -49 -27h-240q-39 0 -84 27.5t-69 66.5l-170 266q-104 164 -254 164h-244v-430q0 -39 -27.5 -66.5 t-66.5 -27.5h-188q-39 0 -67 27.5t-28 66.5zM520 807h426q102 0 181 41t79 131t-78.5 131t-181.5 41h-426v-344z" />
<glyph unicode="S" horiz-adv-x="1595" d="M61 360q0 59 35 85t68 26h119q90 0 135 -94q49 -102 213 -103h350q176 0 176 115q0 47 -59.5 81t-155.5 56.5t-212 45t-230.5 56.5t-210.5 80t-155.5 126.5t-59.5 189.5q0 201 143 309.5t492 108.5h254q205 0 369.5 -105.5t164.5 -263.5q0 -59 -35 -84.5t-67 -25.5h-119 q-90 0 -135 94q-49 102 -213 102h-301q-176 0 -176 -115q0 -63 111.5 -103t270 -70.5t318.5 -73.5t271.5 -141.5t111.5 -245.5q0 -201 -143.5 -309.5t-491.5 -108.5h-303q-205 0 -370 105t-165 263z" />
<glyph unicode="T" horiz-adv-x="1499" d="M20 1245v94q0 41 27 68t68 27h1269q41 0 68 -27t27 -68v-94q0 -41 -27 -67.5t-68 -26.5h-446v-1059q0 -39 -27.5 -65.5t-66.5 -26.5h-189q-39 0 -66.5 26.5t-27.5 65.5v1059h-446q-41 0 -68 26.5t-27 67.5z" />
<glyph unicode="U" horiz-adv-x="1687" d="M123 567v772q0 39 27.5 67t68.5 28h187q39 0 66.5 -28t27.5 -67v-774q0 -147 64.5 -219t199.5 -72h160q135 0 199.5 72t64.5 219v774q0 39 27.5 67t66.5 28h186q41 0 69 -28t28 -67v-772q0 -274 -161 -424.5t-470 -150.5h-180q-309 0 -470 150.5t-161 424.5z" />
<glyph unicode="V" horiz-adv-x="1634" d="M27 1350q-6 12 -6 23q0 18 14 34q23 27 57 27h219q78 0 119 -95l387 -862l387 862q41 94 119 95h219q35 0 57 -27q14 -16 14 -34q0 -11 -5 -23l-576 -1248q-47 -102 -143 -102h-144q-96 0 -143 102z" />
<glyph unicode="W" horiz-adv-x="2293" d="M25 1350q-4 12 -5 23q0 19 14 35q22 26 56 26h219q39 0 72 -27t47 -68l264 -792l244 792q29 94 119 95h184q90 0 119 -95l244 -792l264 792q14 41 47 68t72 27h219q35 0 56 -26q14 -16 14 -35q0 -11 -5 -23l-446 -1248q-37 -102 -144 -102h-145q-111 0 -143 102l-244 770 l-244 -770q-33 -102 -143 -102h-146q-106 0 -143 102z" />
<glyph unicode="X" horiz-adv-x="1536" d="M24 29q-3 8 -4 16q0 22 21 49l504 643l-475 602q-21 26 -21 49q0 9 3 17q11 29 52 29h215q100 0 175 -95l274 -348l274 348q74 94 175 95h215q41 0 52 -29q3 -8 3 -17q0 -22 -21 -49l-475 -602l504 -643q21 -26 21 -49q0 -9 -4 -16q-11 -29 -52 -29h-213q-100 0 -174 94 l-305 389l-305 -389q-74 -94 -174 -94h-213q-41 0 -52 29z" />
<glyph unicode="Y" horiz-adv-x="1519" d="M23 1404q10 30 49 30h190q113 0 174 -95l324 -499l323 499q61 94 174 95h191q39 0 49 -30q3 -9 3 -18q0 -22 -17 -47l-535 -827v-420q0 -39 -27.5 -65.5t-66.5 -26.5h-188q-39 0 -67 26.5t-28 65.5v420l-534 827q-17 25 -17 47q0 9 3 18z" />
<glyph unicode="Z" horiz-adv-x="1468" d="M51 1245v94q0 41 27.5 68t66.5 27h1168q39 0 66.5 -27t27.5 -68v-112q0 -41 -17.5 -79t-32.5 -54l-44 -45l-787 -766h797q41 0 67.5 -27t26.5 -68v-94q0 -41 -26.5 -67.5t-67.5 -26.5h-1161q-39 0 -66.5 26.5t-27.5 67.5v111q0 96 94 190l762 756h-779q-39 0 -66.5 26.5 t-27.5 67.5z" />
<glyph unicode="[" horiz-adv-x="796" d="M143 -205v1659q0 27 17.5 44.5t44.5 17.5h510q27 0 44 -17.5t17 -44.5v-108q0 -27 -17.5 -44.5t-43.5 -17.5h-246v-1319h246q27 0 44 -17.5t17 -43.5v-109q0 -27 -17.5 -44t-43.5 -17h-510q-27 0 -44.5 17t-17.5 44z" />
<glyph unicode="\" horiz-adv-x="1054" d="M3 1405q9 29 46 29h168q127 0 174 -95l649 -1245q14 -25 15 -47q0 -10 -3 -18q-9 -29 -46 -29h-168q-127 0 -174 94l-650 1245q-14 25 -14 47q0 10 3 19z" />
<glyph unicode="]" horiz-adv-x="796" d="M20 -96q0 27 17.5 44t44.5 17h246v1319h-246q-27 0 -44.5 17.5t-17.5 44.5v108q0 27 17.5 44.5t44.5 17.5h510q27 0 44 -17.5t17 -44.5v-1659q0 -27 -17.5 -44t-43.5 -17h-510q-27 0 -44.5 17.5t-17.5 43.5v109z" />
<glyph unicode="^" horiz-adv-x="1089" d="M5 800q-5 10 -5 21q0 19 14 39l322 486q59 88 135 88h147q76 0 136 -88l321 -486q14 -21 14 -39q0 -11 -5 -21q-13 -28 -50 -28h-157q-78 0 -134 84l-198 299l-199 -299q-55 -84 -133 -84h-158q-37 0 -50 28z" />
<glyph unicode="_" horiz-adv-x="819" d="M0 -61q0 27 17.5 44t43.5 17h697q27 0 44 -17.5t17 -43.5v-119q0 -27 -17.5 -44.5t-43.5 -17.5h-697q-27 0 -44 17.5t-17 44.5v119z" />
<glyph unicode="`" horiz-adv-x="563" d="M58 1391q34 43 116 43h82q49 0 92 -34t60 -81l104 -324q10 -33 10 -57q0 -78 -102 -78h-39q-96 0 -158 115l-164 303q-18 35 -17 64q-1 28 16 49z" />
<glyph unicode="a" horiz-adv-x="1335" d="M61 332q0 168 132.5 258t341.5 90h331q0 117 -49 163t-155 46q-139 0 -195 -68q-43 -53 -115 -53h-149q-27 0 -44.5 17.5t-17.5 43.5q0 287 545 287q238 0 382 -106.5t144 -329.5v-619q0 -27 -17 -44t-44 -17h-193q-27 0 -44 17.5t-17 43.5v31q-158 -113 -362 -112 q-209 0 -341.5 92t-132.5 260zM408 332q0 -55 42 -90t119 -35q154 0 297 90v156h-307q-70 0 -110.5 -34t-40.5 -87z" />
<glyph unicode="b" horiz-adv-x="1355" d="M123 1372q0 27 17.5 44.5t43.5 17.5h224q27 0 44 -17.5t17 -44.5v-307q162 51 289 51q246 0 391 -146.5t145 -422.5q0 -567 -635 -567q-145 0 -300.5 32.5t-235.5 79.5v1280zM469 834v-590q86 -23 211 -23q141 0 199.5 77t58.5 249t-57.5 249.5t-194.5 77.5 q-88 1 -217 -40z" />
<glyph unicode="c" horiz-adv-x="1271" d="M61 547q0 281 155 425t439 144q268 0 417 -88t149 -260q0 -27 -17.5 -44t-44.5 -17h-149q-68 0 -115 73q-59 94 -215 94q-143 0 -202.5 -76.5t-59.5 -250.5q0 -172 61.5 -249t210.5 -77q156 0 215 94q47 74 115 74h149q27 0 44.5 -17.5t17.5 -43.5q0 -172 -148.5 -260 t-416.5 -88q-293 0 -449 144t-156 423z" />
<glyph unicode="d" horiz-adv-x="1355" d="M61 547q0 276 145.5 422.5t391.5 146.5q127 0 289 -51v307q0 27 17.5 44.5t43.5 17.5h223q27 0 44.5 -17.5t17.5 -44.5v-1311q0 -27 -17.5 -44t-44.5 -17h-192q-27 0 -44 17.5t-17 43.5v31q-158 -113 -351 -112q-225 0 -365.5 147.5t-140.5 419.5zM418 547 q0 -170 54 -248t177 -78q94 0 238 90v523q-129 41 -217 40q-137 0 -194.5 -77.5t-57.5 -249.5z" />
<glyph unicode="e" horiz-adv-x="1290" d="M61 546.5q0 274.5 155 422t429 147.5q276 0 430 -143.5t154 -411.5v-57q0 -27 -17.5 -44.5t-44.5 -17.5h-753q10 -123 70.5 -179t185.5 -56q141 0 196 67q43 53 115 54h149q27 0 44.5 -17.5t17.5 -44.5q0 -287 -547 -286q-276 0 -430 146t-154 420.5zM412 653h465 q-10 236 -231.5 236t-233.5 -236z" />
<glyph unicode="f" horiz-adv-x="983" d="M123 61v881q0 279 127 395.5t446 116.5q164 0 267 -20q27 -4 44 -21.5t17 -40.5v-110q0 -27 -17.5 -44.5t-43.5 -17.5h-37q-20 0 -65.5 8.5t-72.5 8.5q-199 0 -259 -53.5t-60 -221.5v-16h362q27 0 44.5 -17.5t17.5 -44.5v-119q0 -27 -17.5 -44t-44.5 -17h-362v-623 q0 -27 -17.5 -44t-43.5 -17h-224q-27 0 -44 17t-17 44z" />
<glyph unicode="g" horiz-adv-x="1335" d="M61 596q0 248 159 384t456 136q145 0 301 -32.5t235 -79.5v-926q0 -223 -147 -329.5t-399 -106.5q-279 0 -422.5 66.5t-143.5 219.5q0 27 17.5 44.5t44.5 17.5h149q72 0 115 -53q55 -68 215 -68q121 0 173 46t52 163v47q-160 -41 -299 -41q-227 0 -366.5 137t-139.5 375z M418 596q0 -270 231 -270q96 0 217 30v496q-86 23 -211 22q-237 1 -237 -278z" />
<glyph unicode="h" horiz-adv-x="1396" d="M123 61v1311q0 27 17.5 44.5t43.5 17.5h224q27 0 44 -17.5t17 -44.5v-401q172 145 350 145q211 0 333 -118.5t122 -362.5v-574q0 -27 -17.5 -44t-44.5 -17h-223q-27 0 -44 17.5t-17 43.5v574q0 240 -191 239q-125 0 -268 -143v-670q0 -27 -17.5 -44t-43.5 -17h-224 q-27 0 -44 17t-17 44z" />
<glyph unicode="i" horiz-adv-x="600" d="M123 1305v34q0 53 30.5 84t84.5 31h124q53 0 84 -30.5t31 -84.5v-34q0 -53 -30.5 -84t-84.5 -31h-124q-53 0 -84 31t-31 84zM127 61v949q0 27 17.5 44t43.5 17h224q27 0 44 -17.5t17 -43.5v-949q0 -27 -17.5 -44t-43.5 -17h-224q-27 0 -44 17t-17 44z" />
<glyph unicode="j" horiz-adv-x="616" d="M-184 -168q0 27 17 44.5t44 17.5h31q18 0 50 -7.5t52 -7.5q55 0 94 55.5t39 178.5v897q0 27 17.5 44t44.5 17h223q27 0 44 -17.5t17 -43.5v-897q0 -471 -387 -471q-137 0 -225 20q-61 14 -61 62v108zM139 1305v34q0 53 31 84t84 31h125q53 0 84 -30.5t31 -84.5v-34 q0 -53 -31 -84t-84 -31h-125q-53 0 -84 31t-31 84z" />
<glyph unicode="k" horiz-adv-x="1249" d="M123 61v1311q0 27 17.5 44.5t43.5 17.5h224q27 0 44 -17.5t17 -44.5v-710q174 0 238 135l96 204q20 43 59 69t84 26h189q50 0 50 -39q0 -22 -16 -56l-129 -272q-33 -68 -90 -117t-123 -63q123 -37 213 -180l170 -275q17 -29 18 -50q0 -9 -3 -17q-10 -27 -49 -27h-189 q-96 0 -153 94l-127 207q-82 133 -238 133v-373q0 -27 -17.5 -44t-43.5 -17h-224q-27 0 -44 17t-17 44z" />
<glyph unicode="l" horiz-adv-x="591" d="M123 61v1311q0 27 17.5 44.5t43.5 17.5h224q27 0 44 -17.5t17 -44.5v-1311q0 -27 -17.5 -44t-43.5 -17h-224q-27 0 -44 17t-17 44z" />
<glyph unicode="m" horiz-adv-x="2058" d="M123 61v973q0 27 17.5 44.5t43.5 17.5h224q27 0 44 -17.5t17 -44.5v-63q72 70 141.5 107.5t167.5 37.5q233 0 353 -192q186 193 380 192q197 0 310.5 -117.5t113.5 -363.5v-574q0 -27 -17 -44t-44 -17h-223q-27 0 -44.5 17.5t-17.5 43.5v574q0 240 -174 239 q-106 0 -219 -153q6 -43 6 -86v-574q0 -27 -17.5 -44t-43.5 -17h-223q-27 0 -44.5 17.5t-17.5 43.5v574q0 240 -174 239q-111 0 -213 -143v-670q0 -27 -17.5 -44t-43.5 -17h-224q-27 0 -44 17t-17 44z" />
<glyph unicode="n" horiz-adv-x="1396" d="M123 61v973q0 27 17.5 44.5t43.5 17.5h224q27 0 44 -17.5t17 -44.5v-63q172 145 350 145q211 0 333 -118.5t122 -362.5v-574q0 -27 -17.5 -44t-44.5 -17h-223q-27 0 -44 17.5t-17 43.5v574q0 240 -191 239q-125 0 -268 -143v-670q0 -27 -17.5 -44t-43.5 -17h-224 q-27 0 -44 17t-17 44z" />
<glyph unicode="o" horiz-adv-x="1331" d="M61 548.5q0 280.5 156 424t448.5 143.5t448.5 -143.5t156 -424t-156 -424.5t-448.5 -144t-448.5 144t-156 424.5zM408 549q0 -178 62 -260t195.5 -82t196 82t62.5 260t-62.5 259t-196 81t-195.5 -81t-62 -259z" />
<glyph unicode="p" horiz-adv-x="1355" d="M123 -276v1310q0 27 17.5 44.5t43.5 17.5h193q27 0 44 -17.5t17 -44.5v-30q158 113 350 112q225 0 365.5 -147.5t140.5 -419.5q0 -276 -145 -422.5t-391 -146.5q-127 0 -289 51v-307q0 -27 -17.5 -44.5t-43.5 -17.5h-224q-27 0 -44 17.5t-17 44.5zM469 262 q129 -41 217 -41q137 0 194.5 78t57.5 250q0 170 -54.5 247.5t-176.5 77.5q-94 0 -238 -90v-522z" />
<glyph unicode="q" horiz-adv-x="1355" d="M61 549q0 567 635 567q145 0 301 -32.5t236 -79.5v-1280q0 -27 -17.5 -44.5t-44.5 -17.5h-223q-27 0 -44 17.5t-17 44.5v307q-162 -51 -289 -51q-246 0 -391.5 146.5t-145.5 422.5zM418 549q0 -172 57 -250t195 -78q88 0 217 41v590q-86 23 -211 22q-141 0 -199.5 -76.5 t-58.5 -248.5z" />
<glyph unicode="r" horiz-adv-x="995" d="M123 61v973q0 27 17.5 44.5t43.5 17.5h224q27 0 44 -17.5t17 -44.5v-63q102 74 196.5 109.5t247.5 35.5q27 0 44.5 -17.5t17.5 -43.5v-152q0 -27 -17.5 -44t-44.5 -17h-32q-23 0 -75 3t-79 3q-135 0 -258 -148v-639q0 -27 -17.5 -44t-43.5 -17h-224q-27 0 -44 17t-17 44z " />
<glyph unicode="s" horiz-adv-x="1224" d="M61 793q0 164 143.5 243.5t377.5 79.5q548 0 548 -287q0 -27 -17 -44t-44 -17h-149q-72 0 -115 53q-55 68 -199 68q-199 0 -198 -96q0 -45 77.5 -75t189 -52.5t222.5 -57.5t188.5 -111.5t77.5 -193.5q0 -166 -148.5 -244.5t-402.5 -78.5q-549 0 -549 286q0 27 17.5 44.5 t44.5 17.5h149q72 0 115 -54q55 -68 199 -67q229 0 229 96q0 45 -77.5 75t-189.5 53.5t-222.5 58t-188.5 111.5t-78 192z" />
<glyph unicode="t" horiz-adv-x="921" d="M123 430v942q0 27 17.5 44.5t43.5 17.5h224q27 0 44 -17.5t17 -44.5v-334h279q27 0 44 -17t17 -44v-119q0 -27 -17.5 -44t-43.5 -17h-279v-367q0 -102 48 -157.5t128 -55.5q27 0 72 6t65 6h37q27 0 44.5 -17t17.5 -44v-107q0 -23 -17.5 -40t-44.5 -21q-102 -20 -266 -20 q-430 -1 -430 450z" />
<glyph unicode="u" horiz-adv-x="1396" d="M123 461v573q0 27 17.5 44.5t43.5 17.5h224q27 0 44 -17.5t17 -44.5v-573q0 -240 190 -240q125 0 269 144v669q0 27 17.5 44.5t43.5 17.5h223q27 0 44.5 -17.5t17.5 -44.5v-973q0 -27 -17.5 -44t-44.5 -17h-223q-27 0 -44 17.5t-17 43.5v64q-172 -145 -350 -145 q-211 0 -333 118.5t-122 362.5z" />
<glyph unicode="v" horiz-adv-x="1343" d="M26 1070q11 26 46 26h192q43 0 81 -24.5t54 -63.5l273 -623l272 623q16 39 54 63.5t81 24.5h193q35 0 46 -26q5 -10 4 -23q0 -18 -9 -39l-432 -920q-18 -39 -56.5 -63.5t-79.5 -24.5h-147q-41 0 -79 24.5t-56 63.5l-432 920q-10 22 -10 39q0 13 5 23z" />
<glyph unicode="w" horiz-adv-x="1839" d="M29 1008q-8 26 -9 43q0 44 50 45h186q47 0 84 -23.5t51 -64.5l164 -539l162 539q27 88 114 88h177q88 0 114 -88l162 -539l164 539q14 41 51 64.5t84 23.5h186q49 0 50 -45q0 -18 -9 -43l-303 -920q-14 -41 -50 -64.5t-77 -23.5h-141q-41 0 -78 24.5t-49 63.5l-192 596 l-193 -596q-12 -39 -49 -63.5t-78 -24.5h-141q-41 0 -77 23.5t-50 64.5z" />
<glyph unicode="x" horiz-adv-x="1277" d="M34 31q-3 9 -3 17q0 21 16 40l348 461l-325 459q-14 20 -15.5 39.5t11 34t34.5 14.5h217q96 0 156 -88l166 -252l166 252q59 88 156 88h217q23 0 35 -14.5t11 -34t-16 -39.5l-325 -459l348 -461q16 -19 16 -40q0 -9 -3 -17q-9 -31 -44 -31h-213q-92 0 -156 88l-192 260 l-193 -260q-63 -88 -155 -88h-213q-35 0 -44 31z" />
<glyph unicode="y" horiz-adv-x="1294" d="M35 1036q-3 8 -3 15q0 14 10 26q15 18 40 19h209q29 0 55.5 -19.5t34.5 -48.5l131 -424q49 -156 99.5 -216t119.5 -60l199 700q8 29 31.5 48.5t52.5 19.5h211q25 0 39 -19q10 -13 10 -28q0 -6 -2 -13l-262 -934q-70 -248 -173.5 -354t-277.5 -106q-152 0 -260 20 q-27 4 -44 21.5t-17 40.5v110q0 27 17 44.5t44 17.5h37q23 0 64.5 -8.5t66.5 -8.5q141 0 197 207q-170 0 -284 102.5t-196 364.5z" />
<glyph unicode="z" horiz-adv-x="1144" d="M51 915v119q0 27 17.5 44.5t44.5 17.5h911q27 0 44 -17.5t17 -44.5v-96q0 -74 -71 -145l-545 -551h563q27 0 44.5 -17.5t17.5 -44.5v-119q0 -27 -17.5 -44t-44.5 -17h-919q-27 0 -44.5 17.5t-17.5 43.5v97q0 74 72 145l526 551h-536q-27 0 -44.5 17t-17.5 44z" />
<glyph unicode="{" horiz-adv-x="862" d="M41 565v119q0 27 17.5 44t43.5 17h41q47 0 81 36t34 89v248q0 205 117 301.5t307 96.5h98q27 0 44.5 -17.5t17.5 -44.5v-108q0 -27 -17.5 -44.5t-44.5 -17.5h-41q-66 0 -112.5 -51t-46.5 -137v-195q0 -115 -62.5 -186.5t-163.5 -89.5q100 -18 163 -90t63 -187v-194 q0 -86 47 -137.5t112 -51.5h41q27 0 44.5 -17.5t17.5 -43.5v-109q0 -27 -17.5 -44t-44.5 -17h-98q-190 0 -307 96t-117 301v248q0 53 -34 89t-81 36h-41q-27 0 -44 17t-17 44z" />
<glyph unicode="|" horiz-adv-x="632" d="M143 -276v1648q0 27 17.5 44.5t44.5 17.5h223q27 0 44 -17.5t17 -44.5v-1648q0 -27 -17 -44.5t-44 -17.5h-223q-27 0 -44.5 17.5t-17.5 44.5z" />
<glyph unicode="}" horiz-adv-x="862" d="M20 -96q0 27 17.5 44t44.5 17h41q66 0 113 51.5t47 137.5v194q0 115 62.5 186.5t162.5 90.5q-100 18 -162.5 89.5t-62.5 186.5v195q0 86 -47.5 137t-112.5 51h-41q-27 0 -44.5 17.5t-17.5 44.5v108q0 27 17.5 44.5t44.5 17.5h98q190 0 307 -96.5t117 -301.5v-248 q0 -53 34 -89t81 -36h41q27 0 44 -17t17 -44v-119q0 -27 -17.5 -44t-43.5 -17h-41q-47 0 -81 -36t-34 -89v-248q0 -205 -116.5 -301t-307.5 -96h-98q-27 0 -44.5 17.5t-17.5 43.5v109z" />
<glyph unicode="~" horiz-adv-x="1216" d="M61 555q0 135 80 210t219 75q121 0 239 -51.5t192 -51.5q76 0 120.5 38t94.5 38h98q23 0 37 -15.5t14 -35.5q0 -135 -80 -210t-219 -75q-121 0 -238.5 51.5t-191.5 51.5q-76 0 -121 -38t-94 -38h-98q-23 0 -37.5 14t-14.5 37z" />
<glyph unicode="&#xa0;" d="M25 92l251 952q102 389 664 390h539q37 0 61.5 -28t24.5 -65v-30h-654q-217 0 -338.5 -94.5t-154.5 -221.5l-262 -995h-62q-39 0 -59 27q-14 18 -14 41q1 11 4 24zM219 0l125 461h844v57h-834l115 424q43 160 166 235.5t295 75.5h635v-1161q0 -39 -28 -65.5t-67 -26.5 h-188q-41 0 -67.5 26.5t-26.5 67.5v242h-690l-68 -242q-10 -41 -45 -67.5t-74 -26.5h-92zM571 639h617v491h-264q-98 0 -172 -54t-99 -146z" />
<glyph unicode="&#xa4;" horiz-adv-x="1683" d="M20 590v35h1215q59 -23 114.5 -87.5t125.5 -175.5l170 -268q17 -29 17 -50q0 -9 -3 -17q-10 -27 -49 -27h-240q-39 0 -84 27.5t-69 66.5l-170 266q-104 164 -254 164h-244v-430q0 -39 -27.5 -66.5t-66.5 -27.5h-189q-39 0 -66.5 27.5t-27.5 66.5v434h-90 q-27 0 -44.5 17.5t-17.5 44.5zM20 672v35q0 27 17.5 44t44.5 17h90v571q0 39 26.5 67t65.5 28h826q227 0 374.5 -114t147.5 -300q0 -150 -103.5 -235t-273.5 -113h-1215zM549 807h426q102 0 181 41t79 131t-79 131t-181 41h-426v-344z" />
<glyph unicode="&#xa6;" horiz-adv-x="591" d="M123 -276v696q0 27 17.5 44t43.5 17h224q27 0 44 -17.5t17 -43.5v-696q0 -27 -17.5 -44.5t-43.5 -17.5h-224q-27 0 -44 17.5t-17 44.5zM123 676v696q0 27 17.5 44.5t43.5 17.5h224q27 0 44 -17.5t17 -44.5v-696q0 -27 -17.5 -44.5t-43.5 -17.5h-224q-27 0 -44 17.5 t-17 44.5z" />
<glyph unicode="&#xa7;" horiz-adv-x="1286" d="M82 588q0 168 121 264q-100 94 -101 227q0 375 541 375q539 0 539 -287q0 -27 -17.5 -44t-44.5 -17h-149q-72 0 -115 53q-55 68 -188 68q-121 0 -170 -32t-49 -105q0 -53 56 -91t140 -58.5t181.5 -53.5t181.5 -73t140 -119t56 -187q0 -168 -121 -266q100 -94 101 -226 q0 -375 -541 -374q-539 0 -539 286q0 27 17.5 44.5t44.5 17.5h149q72 0 115 -53q55 -68 188 -68q121 0 170.5 31.5t49.5 105.5q0 53 -56.5 91t-140.5 58.5t-181.5 53.5t-181 73t-140 118.5t-56.5 187.5zM428 588q0 -29 17.5 -51.5t62.5 -44t77.5 -34t107.5 -35.5l108 -34 q57 31 57 119q0 20 -10 37.5t-31.5 33t-45 27.5t-61.5 26.5t-69 23.5l-79 25l-79 26q-55 -35 -55 -119z" />
<glyph unicode="&#xa9;" horiz-adv-x="1740" d="M61 655.5q0 374.5 218.5 586.5t591 212t590.5 -212t218 -586.5t-218 -586.5t-590.5 -212t-591 212t-218.5 586.5zM311 655.5q0 -268.5 146.5 -426t413 -157.5t413 157.5t146.5 426t-146.5 426t-413 157.5t-413 -157.5t-146.5 -426zM481 653q0 182 100.5 276.5t284.5 94.5 q174 0 270.5 -57.5t96.5 -169.5q0 -16 -12.5 -27.5t-28.5 -11.5h-96q-43 0 -74 47q-37 61 -139 61q-94 0 -132 -50t-38 -162.5t39 -162t137 -49.5q100 0 139 62q29 49 74 49h98q16 0 27.5 -12.5t11.5 -28.5q0 -113 -95 -169t-272 -56q-190 0 -290.5 93t-100.5 273z" />
<glyph unicode="&#xaa;" horiz-adv-x="1335" d="M61 332q0 168 132.5 258t341.5 90h331q0 117 -49 163t-155 46q-139 0 -195 -68q-43 -53 -115 -53h-149q-27 0 -44.5 17.5t-17.5 43.5q0 287 545 287q238 0 382 -106.5t144 -329.5v-619q0 -27 -17 -44t-44 -17h-193q-27 0 -44 17.5t-17 43.5v31q-158 -113 -362 -112 q-209 0 -341.5 92t-132.5 260zM408 332q0 -55 42 -90t119 -35q154 0 297 90v156h-307q-70 0 -110.5 -34t-40.5 -87z" />
<glyph unicode="&#xab;" horiz-adv-x="1019" d="M41 537v49q0 41 39 92l205 262q35 45 82 45h122q31 0 37 -23.5t-16 -58.5l-209 -342l209 -342q23 -35 16.5 -58.5t-37.5 -23.5h-122q-47 0 -82 45l-205 262q-39 52 -39 93zM492 537v49q0 41 38 92l205 262q35 45 82 45h123q31 0 37 -23q1 -5 1 -11q0 -20 -17 -48 l-209 -342l209 -342q18 -27 17 -48q0 -6 -1 -10q-6 -24 -37 -24h-123q-47 0 -82 45l-205 262q-38 52 -38 93z" />
<glyph unicode="&#xac;" d="M25 92l251 952q102 389 664 390h539q37 0 61.5 -28t24.5 -65v-30h-654q-217 0 -338.5 -94.5t-154.5 -221.5l-262 -995h-62q-39 0 -59 27q-14 18 -14 41q1 11 4 24zM219 0l125 461h844v57h-834l115 424q43 160 166 235.5t295 75.5h635v-1161q0 -39 -28 -65.5t-67 -26.5 h-188q-41 0 -67.5 26.5t-26.5 67.5v242h-690l-68 -242q-10 -41 -45 -67.5t-74 -26.5h-92zM571 639h617v491h-264q-98 0 -172 -54t-99 -146z" />
<glyph unicode="&#xad;" horiz-adv-x="958" d="M41 569v119q0 27 17.5 44.5t43.5 17.5h754q27 0 44.5 -17.5t17.5 -44.5v-119q0 -27 -17.5 -44t-44.5 -17h-754q-27 0 -44 17t-17 44z" />
<glyph unicode="&#xae;" horiz-adv-x="1740" d="M61 655.5q0 374.5 218.5 586.5t591 212t590.5 -212t218 -586.5t-218 -586.5t-590.5 -212t-591 212t-218.5 586.5zM311 655.5q0 -268.5 146.5 -426t413 -157.5t413 157.5t146.5 426t-146.5 426t-413 157.5t-413 -157.5t-146.5 -426zM514 336v643q0 20 14.5 33.5t34.5 13.5 h432q119 0 196 -63.5t77 -169.5q0 -152 -197 -189q53 -20 119 -119l96 -149q11 -19 11 -30q0 -19 -29 -19h-125q-51 0 -82 49l-88 137q-55 84 -133 84h-129v-221q0 -20 -14.5 -34.5t-34.5 -14.5h-99q-20 0 -34.5 14.5t-14.5 34.5zM711 702h223q55 0 96 21.5t41 69t-41 68 t-96 20.5h-223v-179z" />
<glyph unicode="&#xb0;" horiz-adv-x="819" d="M61 1122.5q0 153.5 99.5 242.5t249 89t249 -89t99.5 -242.5t-99.5 -242.5t-249 -89t-249 89t-99.5 242.5zM274 1122q0 -78 37 -122t98.5 -44t98.5 44t37 122t-37 122t-98.5 44t-98.5 -44t-37 -122z" />
<glyph unicode="&#xb1;" horiz-adv-x="958" d="M41 657v119q0 27 17.5 44.5t43.5 17.5h250v249q0 27 17.5 44.5t44.5 17.5h118q27 0 44.5 -17.5t17.5 -44.5v-249h262q27 0 44.5 -17.5t17.5 -44.5v-119q0 -27 -17.5 -44t-44.5 -17h-262v-182h262q27 0 44.5 -17.5t17.5 -44.5v-119q0 -27 -17.5 -44t-44.5 -17h-754 q-27 0 -44 17.5t-17 43.5v119q0 27 17.5 44.5t43.5 17.5h250v182h-250q-27 0 -44 17t-17 44z" />
<glyph unicode="&#xb2;" horiz-adv-x="1437" d="M61 94v146q0 127 52.5 220t134.5 146t182 91t200.5 61.5t182.5 48t134 63.5t52 95q0 113 -58 153.5t-196 40.5h-71q-193 0 -254 -123q-45 -94 -135 -94h-119q-18 0 -39 7t-42.5 35t-21.5 69q0 115 87.5 206t217.5 137t271 46h135q133 0 236.5 -22.5t188.5 -74t131 -147.5 t46 -233q0 -117 -52 -206t-134 -141.5t-182.5 -90.5t-200.5 -62.5t-182 -47t-134.5 -56t-52.5 -78.5h830q41 0 68.5 -28t27.5 -67v-94q0 -39 -28.5 -66.5t-67.5 -27.5h-1110q-39 0 -68 27.5t-29 66.5z" />
<glyph unicode="&#xb3;" horiz-adv-x="1480" d="M51 391q0 59 35 85t68 26h118q92 0 144 -111q55 -117 246 -117h143q123 0 180 35t57 119t-57 119t-180 35h-180q-39 0 -67 27.5t-28 66.5v82q0 37 27 65.5t64 28.5h147q133 0 193.5 35t60.5 119t-60.5 118.5t-193.5 34.5h-74q-193 0 -254 -123q-45 -94 -135 -94h-119 q-18 0 -38.5 7t-42 35t-21.5 69q0 115 87 206t217 137t271 46h138q602 0 602 -438q0 -182 -137 -287q158 -98 157 -289q0 -231 -147.5 -333.5t-431.5 -102.5h-213q-223 0 -399.5 110.5t-176.5 288.5z" />
<glyph unicode="&#xb5;" horiz-adv-x="1396" d="M123 -276v1310q0 27 17.5 44.5t43.5 17.5h224q27 0 44 -17.5t17 -44.5v-542q0 -129 59.5 -200t141.5 -71q147 0 258 185v628q0 27 17.5 44.5t43.5 17.5h223q27 0 44.5 -17.5t17.5 -44.5v-973q0 -27 -17.5 -44t-44.5 -17h-223q-27 0 -44 17.5t-17 43.5v64 q-68 -80 -122 -112.5t-130 -32.5q-133 0 -207 71v-327q0 -27 -17.5 -44.5t-43.5 -17.5h-224q-27 0 -44 17.5t-17 44.5z" />
<glyph unicode="&#xb6;" horiz-adv-x="1437" d="M61 1065q0 174 123 271.5t308 97.5h843q27 0 44.5 -17.5t17.5 -44.5v-104q0 -27 -17.5 -44.5t-44.5 -17.5h-90v-1450q0 -39 -28.5 -66.5t-67.5 -27.5h-229v1544h-103v-1544h-231q-39 0 -66.5 27.5t-27.5 66.5v936q-184 0 -307.5 99.5t-123.5 273.5z" />
<glyph unicode="&#xb7;" horiz-adv-x="802" d="M205 596v63q0 66 34.5 101t100.5 35h123q66 0 100.5 -35t34.5 -101v-63q0 -63 -35 -99t-100 -36h-123q-66 0 -100.5 36t-34.5 99z" />
<glyph unicode="&#xb9;" horiz-adv-x="798" d="M0 1085q-12 17 -12 35q0 28 32 56l244 210q53 47 148 48h147q41 0 68.5 -28t27.5 -67v-1245q0 -39 -28.5 -66.5t-67.5 -27.5h-186q-39 0 -66.5 26.5t-27.5 65.5v967l-115 -84q-20 -14 -46 -9t-42 23z" />
<glyph unicode="&#xba;" horiz-adv-x="1331" d="M61 548.5q0 280.5 156 424t448.5 143.5t448.5 -143.5t156 -424t-156 -424.5t-448.5 -144t-448.5 144t-156 424.5zM408 549q0 -178 62 -260t195.5 -82t196 82t62.5 260t-62.5 259t-196 81t-195.5 -81t-62 -259z" />
<glyph unicode="&#xbb;" horiz-adv-x="1019" d="M43 161q-1 5 -1 10q0 20 17 48l209 342l-209 342q-18 27 -17 48q0 6 1 11q6 24 37 23h123q47 0 82 -45l204 -262q39 -51 39 -92v-49q0 -41 -39 -93l-204 -262q-35 -45 -82 -45h-123q-31 0 -37 24zM494 161l-2 10q0 20 18 48l209 342l-209 342q-18 27 -18 48q0 6 2 11 q6 24 36 23h123q47 0 82 -45l205 -262q39 -51 39 -92v-49q0 -41 -39 -93l-205 -262q-35 -45 -82 -45h-123q-30 0 -36 24z" />
<glyph unicode="&#xc0;" d="M25 92l251 952q102 389 664 390h539q37 0 61.5 -28t24.5 -65v-1249q0 -39 -28 -65.5t-67 -26.5h-188q-41 0 -67.5 26.5t-26.5 67.5v252h-711l-67 -252q-10 -41 -45 -67.5t-74 -26.5h-197q-39 0 -59 27q-14 18 -14 41q1 11 4 24zM551 629h637v522h-285q-96 0 -167.5 -54.5 t-96.5 -146.5zM867 2118q34 43 116 43h82q49 0 92 -34t60 -81l104 -324q10 -33 10 -57q0 -78 -102 -78h-39q-96 0 -158 115l-164 303q-18 35 -17 64q-1 28 16 49z" />
<glyph unicode="&#xc2;" d="M25 92l251 952q102 389 664 390h539q37 0 61.5 -28t24.5 -65v-1249q0 -39 -28 -65.5t-67 -26.5h-188q-41 0 -67.5 26.5t-26.5 67.5v252h-711l-67 -252q-10 -41 -45 -67.5t-74 -26.5h-197q-39 0 -59 27q-14 18 -14 41q1 11 4 24zM551 629h637v522h-285q-96 0 -167.5 -54.5 t-96.5 -146.5zM669 1615q-5 10 -5 21q0 19 14 39l321 486q59 88 136 88h147q76 0 135 -88l322 -486q14 -21 14 -39q0 -11 -5 -21q-13 -28 -50 -28h-158q-78 0 -133 84l-199 299l-198 -299q-55 -84 -133 -84h-158q-37 0 -50 28z" />
<glyph unicode="&#xc3;" d="M25 92l251 952q102 389 664 390h539q37 0 61.5 -28t24.5 -65v-1249q0 -39 -28 -65.5t-67 -26.5h-188q-41 0 -67.5 26.5t-26.5 67.5v252h-711l-67 -252q-10 -41 -45 -67.5t-74 -26.5h-197q-39 0 -59 27q-14 18 -14 41q1 11 4 24zM551 629h637v522h-285q-96 0 -167.5 -54.5 t-96.5 -146.5zM664 1665q0 135 79.5 210t219.5 75q121 0 238.5 -51.5t191.5 -51.5q76 0 121 38t94 38h98q23 0 37 -15.5t14 -35.5q0 -135 -80 -210t-219 -75q-121 0 -238.5 51.5t-191.5 51.5q-76 0 -121 -38t-94 -38h-98q-23 0 -37 14t-14 37z" />
<glyph unicode="&#xc5;" d="M25 92l251 952q102 389 664 390h539q37 0 61.5 -28t24.5 -65v-1249q0 -39 -28 -65.5t-67 -26.5h-188q-41 0 -67.5 26.5t-26.5 67.5v252h-711l-67 -252q-10 -41 -45 -67.5t-74 -26.5h-197q-39 0 -59 27q-14 18 -14 41q1 11 4 24zM551 629h637v522h-285q-96 0 -167.5 -54.5 t-96.5 -146.5zM860 1773.5q0 153.5 99.5 242.5t249 89t248.5 -89t99 -242.5t-99 -242.5t-248.5 -89t-249 89t-99.5 242.5zM1073 1773.5q0 -77.5 37 -121.5t98.5 -44t98 44t36.5 121.5t-36.5 121.5t-98 44t-98.5 -44t-37 -121.5z" />
<glyph unicode="&#xc8;" horiz-adv-x="1525" d="M143 96v1245q0 39 28 66t67 27h1153q39 0 66.5 -28t27.5 -67v-94q0 -39 -27.5 -66.5t-66.5 -27.5h-871v-291h750q39 0 66.5 -27.5t27.5 -66.5v-94q0 -39 -27.5 -66.5t-66.5 -27.5h-750v-295h869q39 0 65.5 -27t26.5 -66v-96q0 -39 -28 -66.5t-67 -27.5h-1148 q-39 0 -67 27.5t-28 68.5zM472 2118q34 43 116 43h82q49 0 92 -34t59 -81l105 -324q10 -33 10 -57q0 -78 -102 -78h-39q-96 0 -158 115l-164 303q-18 35 -18 64q0 28 17 49z" />
<glyph unicode="&#xca;" horiz-adv-x="1525" d="M143 96v1245q0 39 28 66t67 27h1153q39 0 66.5 -28t27.5 -67v-94q0 -39 -27.5 -66.5t-66.5 -27.5h-871v-291h750q39 0 66.5 -27.5t27.5 -66.5v-94q0 -39 -27.5 -66.5t-66.5 -27.5h-750v-295h869q39 0 65.5 -27t26.5 -66v-96q0 -39 -28 -66.5t-67 -27.5h-1148 q-39 0 -67 27.5t-28 68.5zM275 1615q-5 10 -4 21q0 19 14 39l321 486q59 88 135 88h148q76 0 135 -88l322 -486q14 -21 14 -39q0 -11 -5 -21q-13 -28 -50 -28h-158q-78 0 -133 84l-199 299l-199 -299q-55 -84 -133 -84h-157q-38 0 -51 28z" />
<glyph unicode="&#xcc;" horiz-adv-x="663" d="M-11 2118q34 43 115 43h82q49 0 92.5 -34t59.5 -81l104 -324q10 -33 11 -57q0 -78 -103 -78h-39q-96 0 -157 115l-164 303q-18 35 -18 64q0 28 17 49zM143 92v1247q0 39 28 67t67 28h186q41 0 68.5 -28t27.5 -67v-1245q0 -39 -28.5 -66.5t-67.5 -27.5h-186 q-39 0 -67 26.5t-28 65.5z" />
<glyph unicode="&#xce;" horiz-adv-x="663" d="M-208 1615q-5 10 -5 21q0 19 14 39l322 486q59 88 135 88h148q76 0 135 -88l321 -486q14 -21 14 -39q0 -11 -5 -21q-13 -28 -50 -28h-157q-78 0 -134 84l-198 299l-199 -299q-55 -84 -133 -84h-158q-37 0 -50 28zM143 92v1247q0 39 28 67t67 28h186q41 0 68.5 -28 t27.5 -67v-1245q0 -39 -28.5 -66.5t-67.5 -27.5h-186q-39 0 -67 26.5t-28 65.5z" />
<glyph unicode="&#xd1;" horiz-adv-x="1775" d="M143 94v1245q0 39 27 67t66 28h294q35 0 74 -28t64 -67l604 -929v931q0 39 27.5 66t66.5 27h172q39 0 66.5 -27t27.5 -68v-1245q0 -39 -27.5 -66.5t-66.5 -27.5h-332q-39 0 -80 27.5t-65 66.5l-553 858v-858q0 -39 -27.5 -66.5t-66.5 -27.5h-176q-39 0 -67 27.5t-28 66.5 zM340 1665q0 135 80 210t219 75q121 0 238.5 -51.5t191.5 -51.5q76 0 121 38t94 38h98q23 0 37.5 -15.5t14.5 -35.5q0 -135 -80 -210t-219 -75q-121 0 -239 51.5t-191 51.5q-76 0 -121 -38t-95 -38h-98q-23 0 -37 14t-14 37z" />
<glyph unicode="&#xd2;" horiz-adv-x="1732" d="M61 717q0 389 205 568t600.5 179t600 -179t204.5 -568t-204.5 -568.5t-600 -179.5t-600.5 179.5t-205 568.5zM438 716.5q0 -237.5 101.5 -357t327 -119.5t326.5 119.5t101 357t-101 357.5t-326.5 120t-327 -120t-101.5 -357.5zM525 2118q34 43 116 43h82q49 0 92 -34 t59 -81l105 -324q10 -33 10 -57q0 -78 -102 -78h-39q-96 0 -158 115l-164 303q-18 35 -17 64q-1 28 16 49z" />
<glyph unicode="&#xd4;" horiz-adv-x="1732" d="M61 717q0 389 205 568t600.5 179t600 -179t204.5 -568t-204.5 -568.5t-600 -179.5t-600.5 179.5t-205 568.5zM327 1615q-5 10 -5 21q0 19 14 39l321 486q59 88 136 88h147q76 0 135 -88l322 -486q14 -21 14 -39q0 -11 -5 -21q-13 -28 -50 -28h-158q-78 0 -133 84 l-199 299l-198 -299q-55 -84 -133 -84h-158q-37 0 -50 28zM438 716.5q0 -237.5 101.5 -357t327 -119.5t326.5 119.5t101 357t-101 357.5t-326.5 120t-327 -120t-101.5 -357.5z" />
<glyph unicode="&#xd5;" horiz-adv-x="1732" d="M61 717q0 389 205 568t600.5 179t600 -179t204.5 -568t-204.5 -568.5t-600 -179.5t-600.5 179.5t-205 568.5zM319 1665q0 135 80 210t219 75q121 0 239 -51.5t192 -51.5q76 0 120.5 38t94.5 38h98q23 0 37 -15.5t14 -35.5q0 -135 -80 -210t-219 -75q-121 0 -238.5 51.5 t-191.5 51.5q-76 0 -121 -38t-94 -38h-98q-23 0 -37.5 14t-14.5 37zM438 716.5q0 -237.5 101.5 -357t327 -119.5t326.5 119.5t101 357t-101 357.5t-326.5 120t-327 -120t-101.5 -357.5z" />
<glyph unicode="&#xd9;" horiz-adv-x="1687" d="M123 567v772q0 39 27.5 67t68.5 28h187q39 0 66.5 -28t27.5 -67v-774q0 -147 64.5 -219t199.5 -72h160q135 0 199.5 72t64.5 219v774q0 39 27.5 67t66.5 28h186q41 0 69 -28t28 -67v-772q0 -274 -161 -424.5t-470 -150.5h-180q-309 0 -470 150.5t-161 424.5zM501 2118 q34 43 115 43h82q49 0 92.5 -34t59.5 -81l104 -324q10 -33 11 -57q0 -78 -103 -78h-39q-96 0 -157 115l-164 303q-18 35 -18 64q0 28 17 49z" />
<glyph unicode="&#xdb;" horiz-adv-x="1687" d="M123 567v772q0 39 27.5 67t68.5 28h187q39 0 66.5 -28t27.5 -67v-774q0 -147 64.5 -219t199.5 -72h160q135 0 199.5 72t64.5 219v774q0 39 27.5 67t66.5 28h186q41 0 69 -28t28 -67v-772q0 -274 -161 -424.5t-470 -150.5h-180q-309 0 -470 150.5t-161 424.5zM304 1615 q-5 10 -5 21q0 19 14 39l322 486q59 88 135 88h148q76 0 135 -88l321 -486q14 -21 14 -39q0 -11 -5 -21q-13 -28 -50 -28h-157q-78 0 -134 84l-198 299l-199 -299q-55 -84 -133 -84h-158q-37 0 -50 28z" />
<glyph unicode="&#xe0;" horiz-adv-x="1335" d="M61 332q0 168 132.5 258t341.5 90h331q0 117 -49 163t-155 46q-139 0 -195 -68q-43 -53 -115 -53h-149q-27 0 -44.5 17.5t-17.5 43.5q0 287 545 287q238 0 382 -106.5t144 -329.5v-619q0 -27 -17 -44t-44 -17h-193q-27 0 -44 17.5t-17 43.5v31q-158 -113 -362 -112 q-209 0 -341.5 92t-132.5 260zM345 1769q34 43 116 43h82q49 0 92 -33.5t59 -80.5l105 -324q10 -33 10 -57q0 -78 -102 -78h-39q-96 0 -158 115l-164 303q-18 35 -18 64q0 27 17 48zM408 332q0 -55 42 -90t119 -35q154 0 297 90v156h-307q-70 0 -110.5 -34t-40.5 -87z" />
<glyph unicode="&#xe2;" horiz-adv-x="1335" d="M61 332q0 168 132.5 258t341.5 90h331q0 117 -49 163t-155 46q-139 0 -195 -68q-43 -53 -115 -53h-149q-27 0 -44.5 17.5t-17.5 43.5q0 287 545 287q238 0 382 -106.5t144 -329.5v-619q0 -27 -17 -44t-44 -17h-193q-27 0 -44 17.5t-17 43.5v31q-158 -113 -362 -112 q-209 0 -341.5 92t-132.5 260zM146 1267q-5 10 -5 21q0 19 15 39l321 485q59 88 135 89h148q76 0 135 -89l322 -485q14 -21 14 -39q0 -11 -5 -21q-13 -28 -50 -28h-158q-78 0 -133 84l-199 299l-199 -299q-55 -84 -133 -84h-157q-38 0 -51 28zM408 332q0 -55 42 -90t119 -35 q154 0 297 90v156h-307q-70 0 -110.5 -34t-40.5 -87z" />
<glyph unicode="&#xe3;" horiz-adv-x="1335" d="M61 332q0 168 132.5 258t341.5 90h331q0 117 -49 163t-155 46q-139 0 -195 -68q-43 -53 -115 -53h-149q-27 0 -44.5 17.5t-17.5 43.5q0 287 545 287q238 0 382 -106.5t144 -329.5v-619q0 -27 -17 -44t-44 -17h-193q-27 0 -44 17.5t-17 43.5v31q-158 -113 -362 -112 q-209 0 -341.5 92t-132.5 260zM139 1317q0 135 80 210t219 75q121 0 239 -51.5t191 -51.5q76 0 121 38t94 38h99q23 0 37 -15.5t14 -35.5q0 -135 -80 -210t-219 -75q-121 0 -238.5 51t-191.5 51q-76 0 -121 -37.5t-94 -37.5h-99q-23 0 -37 14t-14 37zM408 332q0 -55 42 -90 t119 -35q154 0 297 90v156h-307q-70 0 -110.5 -34t-40.5 -87z" />
<glyph unicode="&#xe5;" horiz-adv-x="1335" d="M61 332q0 168 132.5 258t341.5 90h331q0 117 -49 163t-155 46q-139 0 -195 -68q-43 -53 -115 -53h-149q-27 0 -44.5 17.5t-17.5 43.5q0 287 545 287q238 0 382 -106.5t144 -329.5v-619q0 -27 -17 -44t-44 -17h-193q-27 0 -44 17.5t-17 43.5v31q-158 -113 -362 -112 q-209 0 -341.5 92t-132.5 260zM338 1570.5q0 153.5 99.5 243t249 89.5t248.5 -89.5t99 -243t-99 -242.5t-248.5 -89t-249 89t-99.5 242.5zM408 332q0 -55 42 -90t119 -35q154 0 297 90v156h-307q-70 0 -110.5 -34t-40.5 -87zM551 1571q0 -78 37 -122t98.5 -44t98 44 t36.5 122t-36.5 122t-98 44t-98.5 -44t-37 -122z" />
<glyph unicode="&#xe8;" horiz-adv-x="1290" d="M61 546.5q0 274.5 155 422t429 147.5q276 0 430 -143.5t154 -411.5v-57q0 -27 -17.5 -44.5t-44.5 -17.5h-753q10 -123 70.5 -179t185.5 -56q141 0 196 67q43 53 115 54h149q27 0 44.5 -17.5t17.5 -44.5q0 -287 -547 -286q-276 0 -430 146t-154 420.5zM304 1769 q34 43 116 43h82q49 0 92 -33.5t59 -80.5l105 -324q10 -33 10 -57q0 -78 -102 -78h-39q-96 0 -158 115l-164 303q-18 35 -18 64q0 27 17 48zM412 653h465q-10 236 -231.5 236t-233.5 -236z" />
<glyph unicode="&#xea;" horiz-adv-x="1290" d="M61 546.5q0 274.5 155 422t429 147.5q276 0 430 -143.5t154 -411.5v-57q0 -27 -17.5 -44.5t-44.5 -17.5h-753q10 -123 70.5 -179t185.5 -56q141 0 196 67q43 53 115 54h149q27 0 44.5 -17.5t17.5 -44.5q0 -287 -547 -286q-276 0 -430 146t-154 420.5zM105 1267 q-5 10 -4 21q0 19 14 39l321 485q59 88 135 89h148q76 0 135 -89l322 -485q14 -21 14 -39q0 -11 -5 -21q-13 -28 -50 -28h-158q-78 0 -133 84l-199 299l-199 -299q-55 -84 -133 -84h-157q-38 0 -51 28zM412 653h465q-10 236 -231.5 236t-233.5 -236z" />
<glyph unicode="&#xec;" horiz-adv-x="600" d="M-42 2107q34 43 116 43h82q49 0 92 -33.5t59 -80.5l105 -324q10 -33 10 -57q0 -78 -103 -78h-38q-96 0 -158 115l-164 303q-18 35 -18 64q0 27 17 48zM123 1305v34q0 53 30.5 84t84.5 31h124q53 0 84 -30.5t31 -84.5v-34q0 -53 -30.5 -84t-84.5 -31h-124q-53 0 -84 31 t-31 84zM127 61v949q0 27 17.5 44t43.5 17h224q27 0 44 -17.5t17 -43.5v-949q0 -27 -17.5 -44t-43.5 -17h-224q-27 0 -44 17t-17 44z" />
<glyph unicode="&#xee;" horiz-adv-x="600" d="M-241 1605q-5 10 -5 21q0 19 15 39l321 485q59 88 135 88h148q76 0 135 -88l321 -485q14 -21 15 -39q0 -11 -5 -21q-13 -28 -51 -28h-157q-78 0 -133 84l-199 299l-199 -299q-55 -84 -133 -84h-157q-38 0 -51 28zM123 1305v34q0 53 30.5 84t84.5 31h124q53 0 84 -30.5 t31 -84.5v-34q0 -53 -30.5 -84t-84.5 -31h-124q-53 0 -84 31t-31 84zM127 61v949q0 27 17.5 44t43.5 17h224q27 0 44 -17.5t17 -43.5v-949q0 -27 -17.5 -44t-43.5 -17h-224q-27 0 -44 17t-17 44z" />
<glyph unicode="&#xf1;" horiz-adv-x="1396" d="M123 61v973q0 27 17.5 44.5t43.5 17.5h224q27 0 44 -17.5t17 -44.5v-63q172 145 350 145q211 0 333 -118.5t122 -362.5v-574q0 -27 -17.5 -44t-44.5 -17h-223q-27 0 -44 17.5t-17 43.5v574q0 240 -191 239q-125 0 -268 -143v-670q0 -27 -17.5 -44t-43.5 -17h-224 q-27 0 -44 17t-17 44zM152 1317q0 135 79.5 210t219.5 75q121 0 238.5 -51.5t191.5 -51.5q76 0 121 38t94 38h98q23 0 37 -15.5t14 -35.5q0 -135 -80 -210t-219 -75q-121 0 -238.5 51t-191.5 51q-76 0 -121 -37.5t-94 -37.5h-98q-23 0 -37 14t-14 37z" />
<glyph unicode="&#xf2;" horiz-adv-x="1331" d="M61 548.5q0 280.5 156 424t448.5 143.5t448.5 -143.5t156 -424t-156 -424.5t-448.5 -144t-448.5 144t-156 424.5zM325 1769q34 43 115 43h82q49 0 92 -33.5t60 -80.5l104 -324q10 -33 11 -57q0 -78 -103 -78h-39q-96 0 -158 115l-163 303q-18 35 -18 64q0 27 17 48z M408 549q0 -178 62 -260t195.5 -82t196 82t62.5 260t-62.5 259t-196 81t-195.5 -81t-62 -259z" />
<glyph unicode="&#xf4;" horiz-adv-x="1331" d="M61 548.5q0 280.5 156 424t448.5 143.5t448.5 -143.5t156 -424t-156 -424.5t-448.5 -144t-448.5 144t-156 424.5zM126 1267q-5 10 -5 21q0 19 14 39l322 485q59 88 135 89h147q76 0 135 -89l322 -485q14 -21 14 -39q0 -11 -5 -21q-13 -28 -50 -28h-158q-78 0 -133 84 l-198 299l-199 -299q-55 -84 -133 -84h-158q-37 0 -50 28zM408 549q0 -178 62 -260t195.5 -82t196 82t62.5 260t-62.5 259t-196 81t-195.5 -81t-62 -259z" />
<glyph unicode="&#xf5;" horiz-adv-x="1331" d="M61 548.5q0 280.5 156 424t448.5 143.5t448.5 -143.5t156 -424t-156 -424.5t-448.5 -144t-448.5 144t-156 424.5zM119 1317q0 135 80 210t219 75q121 0 238.5 -51.5t191.5 -51.5q76 0 121 38t94 38h98q23 0 37 -15.5t14 -35.5q0 -135 -79.5 -210t-219.5 -75 q-121 0 -238.5 51t-191.5 51q-76 0 -121 -37.5t-94 -37.5h-98q-23 0 -37 14t-14 37zM408 549q0 -178 62 -260t195.5 -82t196 82t62.5 260t-62.5 259t-196 81t-195.5 -81t-62 -259z" />
<glyph unicode="&#xf9;" horiz-adv-x="1396" d="M123 461v573q0 27 17.5 44.5t43.5 17.5h224q27 0 44 -17.5t17 -44.5v-573q0 -240 190 -240q125 0 269 144v669q0 27 17.5 44.5t43.5 17.5h223q27 0 44.5 -17.5t17.5 -44.5v-973q0 -27 -17.5 -44t-44.5 -17h-223q-27 0 -44 17.5t-17 43.5v64q-172 -145 -350 -145 q-211 0 -333 118.5t-122 362.5zM357 1769q34 43 116 43h82q49 0 92 -33.5t60 -80.5l104 -324q10 -33 10 -57q0 -78 -102 -78h-39q-96 0 -158 115l-164 303q-18 35 -17 64q-1 27 16 48z" />
<glyph unicode="&#xfb;" horiz-adv-x="1396" d="M123 461v573q0 27 17.5 44.5t43.5 17.5h224q27 0 44 -17.5t17 -44.5v-573q0 -240 190 -240q125 0 269 144v669q0 27 17.5 44.5t43.5 17.5h223q27 0 44.5 -17.5t17.5 -44.5v-973q0 -27 -17.5 -44t-44.5 -17h-223q-27 0 -44 17.5t-17 43.5v64q-172 -145 -350 -145 q-211 0 -333 118.5t-122 362.5zM159 1267q-5 10 -5 21q0 19 14 39l321 485q59 88 136 89h147q76 0 135 -89l322 -485q14 -21 14 -39q0 -11 -5 -21q-13 -28 -50 -28h-158q-78 0 -133 84l-199 299l-198 -299q-55 -84 -133 -84h-158q-37 0 -50 28z" />
<glyph unicode="&#x152;" horiz-adv-x="3258" d="M61 717q0 389 205 568t600.5 179t600 -179t204.5 -568t-204.5 -568.5t-600 -179.5t-600.5 179.5t-205 568.5zM438 716.5q0 -237.5 101.5 -357t327 -119.5t326.5 119.5t101 357t-101 357.5t-326.5 120t-327 -120t-101.5 -357.5zM1876 96v1245q0 39 27.5 66t66.5 27h1153 q39 0 66.5 -28t27.5 -67v-94q0 -39 -27.5 -66.5t-66.5 -27.5h-870v-291h749q39 0 67 -27.5t28 -66.5v-94q0 -39 -28 -66.5t-67 -27.5h-749v-295h868q39 0 65.5 -27t26.5 -66v-96q0 -39 -27.5 -66.5t-66.5 -27.5h-1149q-39 0 -66.5 27.5t-27.5 68.5z" />
<glyph unicode="&#x153;" horiz-adv-x="2621" d="M61 548.5q0 280.5 156 424t448.5 143.5t448.5 -143.5t156 -424t-156 -424.5t-448.5 -144t-448.5 144t-156 424.5zM408 549q0 -178 62 -260t195.5 -82t196 82t62.5 260t-62.5 259t-196 81t-195.5 -81t-62 -259zM1393 546.5q0 274.5 154.5 422t428.5 147.5 q276 0 430 -143.5t154 -411.5v-57q0 -27 -17.5 -44.5t-43.5 -17.5h-754q10 -123 70.5 -179t185.5 -56q141 0 197 67q43 53 114 54h150q27 0 44 -17.5t17 -44.5q0 -287 -547 -286q-276 0 -429.5 146t-153.5 420.5zM1743 653h465q-10 236 -231.5 236t-233.5 -236z" />
<glyph unicode="&#x2c6;" horiz-adv-x="1089" d="M5 800q-5 10 -5 21q0 19 14 39l322 486q59 88 135 88h147q76 0 136 -88l321 -486q14 -21 14 -39q0 -11 -5 -21q-13 -28 -50 -28h-157q-78 0 -134 84l-198 299l-199 -299q-55 -84 -133 -84h-158q-37 0 -50 28z" />
<glyph unicode="&#x2dc;" horiz-adv-x="716" d="M-547 201q0 135 80 209.5t219 74.5q121 0 239 -51t191 -51q76 0 121 38t94 38h99q23 0 37 -15.5t14 -35.5q0 -135 -80 -210t-219 -75q-121 0 -239 51t-191 51q-76 0 -121 -37.5t-94 -37.5h-99q-23 0 -37 14t-14 37z" />
<glyph unicode="&#x2013;" horiz-adv-x="763" d="M41 535v151q0 27 17.5 44.5t43.5 17.5h560q27 0 44 -17.5t17 -44.5v-151q0 -27 -17.5 -44.5t-43.5 -17.5h-560q-27 0 -44 17.5t-17 44.5z" />
<glyph unicode="&#x2014;" horiz-adv-x="1257" d="M41 569v119q0 27 17.5 44.5t43.5 17.5h1053q27 0 44.5 -17.5t17.5 -44.5v-119q0 -27 -17.5 -44t-44.5 -17h-1053q-27 0 -44 17t-17 44z" />
<glyph unicode="&#x2018;" horiz-adv-x="550" d="M96 1018l119 301q20 49 62 82t96 33h39q63 0 83.5 -33t8.5 -103l-60 -321q-8 -47 -54 -81t-97 -34h-82q-80 0 -112 42t-3 114z" />
<glyph unicode="&#x2019;" horiz-adv-x="550" d="M47 997l59 322q8 47 54.5 81t97.5 34h82q80 0 112 -42q17 -22 16 -53q0 -27 -13 -61l-119 -301q-20 -49 -62.5 -82t-95.5 -33h-39q-63 0 -84 33q-13 20 -13 55q0 21 5 47z" />
<glyph unicode="&#x201a;" horiz-adv-x="550" d="M47 -113l59 322q8 47 54.5 81t97.5 34h82q80 0 112 -42q17 -22 16 -53q0 -27 -13 -61l-119 -301q-20 -49 -62.5 -82t-95.5 -33h-39q-63 0 -84 33q-13 20 -13 55q0 21 5 47z" />
<glyph unicode="&#x201c;" horiz-adv-x="980" d="M96 1018l119 301q20 49 62 82t96 33h39q63 0 84 -33q13 -20 12 -56q0 -21 -4 -47l-60 -321q-8 -47 -54 -81t-97 -34h-82q-80 0 -112 42q-17 22 -16 53q-1 27 13 61zM526 1018l119 301q20 49 62.5 82t95.5 33h39q63 0 84 -33q13 -20 12 -56q0 -21 -4 -47l-60 -321 q-8 -47 -54 -81t-97 -34h-82q-80 0 -112 42q-17 22 -16 53q-1 27 13 61z" />
<glyph unicode="&#x201d;" horiz-adv-x="980" d="M47 997l59 322q8 47 54.5 81t97.5 34h82q80 0 112 -42q17 -22 16 -53q0 -27 -13 -61l-119 -301q-20 -49 -62.5 -82t-95.5 -33h-39q-63 0 -84 33q-13 20 -13 55q0 21 5 47zM477 997l60 322q8 47 54 81t97 34h82q80 0 112 -42q17 -22 16 -53q0 -27 -13 -61l-119 -301 q-20 -49 -62 -82t-96 -33h-39q-63 0 -84 33q-13 20 -12 55q-1 21 4 47z" />
<glyph unicode="&#x201e;" horiz-adv-x="980" d="M47 -113l59 322q8 47 54.5 81t97.5 34h82q80 0 112 -42q17 -22 16 -53q0 -27 -13 -61l-119 -301q-20 -49 -62.5 -82t-95.5 -33h-39q-63 0 -84 33q-13 20 -13 55q0 21 5 47zM477 -113l60 322q8 47 54 81t97 34h82q80 0 112 -42q17 -22 16 -53q0 -27 -13 -61l-119 -301 q-20 -49 -62 -82t-96 -33h-39q-63 0 -84 33q-13 20 -12 55q-1 21 4 47z" />
<glyph unicode="&#x2022;" horiz-adv-x="819" d="M61 624.5q0 153.5 99.5 242.5t249 89t249 -89t99.5 -242.5t-99.5 -242.5t-249 -89t-249 89t-99.5 242.5z" />
<glyph unicode="&#x2026;" horiz-adv-x="1519" d="M82 125v63q0 66 35 101t100 35h123q66 0 100.5 -35t34.5 -101v-63q0 -63 -34.5 -99t-100.5 -36h-123q-66 0 -100.5 36t-34.5 99zM563 125v63q0 66 36 101t99 35h123q63 0 99 -35t36 -101v-63q0 -63 -35.5 -99t-99.5 -36h-123q-63 0 -99 36t-36 99zM1044 125v63 q0 66 35 101t101 35h123q66 0 100.5 -35t34.5 -101v-63q0 -63 -35 -99t-100 -36h-123q-66 0 -101 36t-35 99z" />
<glyph unicode="&#x2039;" horiz-adv-x="860" d="M61 522v49q0 66 60 109l569 403q35 23 61.5 9.5t26.5 -50.5v-172q0 -74 -88 -135l-266 -188l266 -189q88 -61 88 -135v-172q0 -37 -26.5 -50t-61.5 9l-569 404q-60 42 -60 108z" />
<glyph unicode="&#x203a;" horiz-adv-x="860" d="M82 51v172q0 74 88 135l266 189l-266 188q-88 61 -88 135v172q0 37 27 51q10 5 20 5q19 0 41 -15l569 -403q59 -43 60 -109v-49q0 -66 -60 -108l-569 -404q-22 -14 -41 -14q-11 0 -20 5q-27 13 -27 50z" />
<glyph unicode="&#x20ac;" horiz-adv-x="1771" d="M0 643v47h1126v-47q0 -27 -17 -44t-44 -17h-522q8 -170 93 -239t275 -69h199q178 0 246 138q53 111 143 110h119q18 0 38.5 -7t42 -34.5t21.5 -68.5q0 -129 -87 -227.5t-216 -145.5t-272 -47h-244q-676 0 -735 590h-105q-27 0 -44 17t-17 44zM31 745v48q0 27 17.5 44 t43.5 17h74q66 588 735 588h223q143 0 272.5 -47t216.5 -145.5t87 -227.5q0 -59 -35 -85t-68 -26h-118q-90 0 -144 111q-68 137 -245 137h-179q-190 0 -274 -68.5t-94 -236.5h553q27 0 44 -17.5t17 -43.5v-48h-1126z" />
<glyph unicode="&#x2122;" horiz-adv-x="1650" d="M0 1327v70q0 37 35 37h588q37 0 36 -37v-70q0 -37 -36 -37h-191v-477q0 -14 -11 -25.5t-26 -11.5h-133q-16 0 -26.5 11.5t-10.5 25.5v477h-190q-35 0 -35 37zM709 813v584q0 37 36 37h205q35 0 54 -43l145 -359l145 359q18 43 54 43h204q37 0 37 -37v-584 q0 -14 -10 -25.5t-27 -11.5h-129q-14 0 -25.5 11.5t-11.5 25.5v375l-151 -369q-23 -43 -57 -43h-58q-35 0 -57 43l-152 369v-375q0 -14 -11 -25.5t-26 -11.5h-129q-16 0 -26 11.5t-10 25.5z" />
<glyph unicode="&#xe000;" horiz-adv-x="1095" d="M0 1095h1095v-1095h-1095v1095z" />
<glyph unicode="&#xfb01;" horiz-adv-x="1583" d="M123 61v881q0 279 127 395.5t446 116.5q164 0 267 -20q27 -4 44 -21.5t17 -40.5v-110q0 -27 -17.5 -44.5t-43.5 -17.5h-37q-20 0 -65.5 8.5t-72.5 8.5q-199 0 -259 -53.5t-60 -221.5v-16h362q27 0 44.5 -17.5t17.5 -44.5v-119q0 -27 -17.5 -44t-44.5 -17h-362v-623 q0 -27 -17.5 -44t-43.5 -17h-224q-27 0 -44 17t-17 44zM1106 1305v34q0 53 30.5 84t84.5 31h125q53 0 83.5 -30.5t30.5 -84.5v-34q0 -53 -30.5 -84t-83.5 -31h-125q-53 0 -84 31t-31 84zM1110 61v949q0 27 17.5 44t43.5 17h224q27 0 44 -17.5t17 -43.5v-949q0 -27 -17.5 -44 t-43.5 -17h-224q-27 0 -44 17t-17 44z" />
<glyph unicode="&#xfb02;" horiz-adv-x="1574" d="M123 61v881q0 279 127 395.5t446 116.5q164 0 267 -20q27 -4 44 -21.5t17 -40.5v-110q0 -27 -17.5 -44.5t-43.5 -17.5h-37q-20 0 -65.5 8.5t-72.5 8.5q-199 0 -259 -53.5t-60 -221.5v-16h362q27 0 44.5 -17.5t17.5 -44.5v-119q0 -27 -17.5 -44t-44.5 -17h-362v-623 q0 -27 -17.5 -44t-43.5 -17h-224q-27 0 -44 17t-17 44zM1106 61v1311q0 27 17.5 44.5t43.5 17.5h224q27 0 44 -17.5t17 -44.5v-1311q0 -27 -17.5 -44t-43.5 -17h-224q-27 0 -44 17t-17 44z" />
<glyph unicode="&#xfb03;" horiz-adv-x="2566" d="M123 61v881q0 279 127 395.5t446 116.5q164 0 267 -20q27 -4 44 -21.5t17 -40.5v-110q0 -27 -17.5 -44.5t-43.5 -17.5h-37q-20 0 -65.5 8.5t-72.5 8.5q-199 0 -259 -53.5t-60 -221.5v-16h362q27 0 44.5 -17.5t17.5 -44.5v-119q0 -27 -17.5 -44t-44.5 -17h-362v-623 q0 -27 -17.5 -44t-43.5 -17h-224q-27 0 -44 17t-17 44zM1106 61v881q0 279 127 395.5t446 116.5q164 0 267 -20q27 -4 44 -21.5t17 -40.5v-110q0 -27 -17.5 -44.5t-43.5 -17.5h-37q-20 0 -65.5 8.5t-71.5 8.5q-199 0 -259.5 -53.5t-60.5 -221.5v-16h363q27 0 44 -17.5 t17 -44.5v-119q0 -27 -17.5 -44t-43.5 -17h-363v-623q0 -27 -17.5 -44t-43.5 -17h-224q-27 0 -44 17t-17 44zM2089 1305v34q0 53 30.5 84t84.5 31h125q53 0 83.5 -30.5t30.5 -84.5v-34q0 -53 -30.5 -84t-83.5 -31h-125q-53 0 -84 31t-31 84zM2093 61v949q0 27 17.5 44 t43.5 17h224q27 0 44 -17.5t17 -43.5v-949q0 -27 -17.5 -44t-43.5 -17h-224q-27 0 -44 17t-17 44z" />
<glyph unicode="&#xfb04;" horiz-adv-x="2557" d="M123 61v881q0 279 127 395.5t446 116.5q164 0 267 -20q27 -4 44 -21.5t17 -40.5v-110q0 -27 -17.5 -44.5t-43.5 -17.5h-37q-20 0 -65.5 8.5t-72.5 8.5q-199 0 -259 -53.5t-60 -221.5v-16h362q27 0 44.5 -17.5t17.5 -44.5v-119q0 -27 -17.5 -44t-44.5 -17h-362v-623 q0 -27 -17.5 -44t-43.5 -17h-224q-27 0 -44 17t-17 44zM1106 61v881q0 279 127 395.5t446 116.5q164 0 267 -20q27 -4 44 -21.5t17 -40.5v-110q0 -27 -17.5 -44.5t-43.5 -17.5h-37q-20 0 -65.5 8.5t-71.5 8.5q-199 0 -259.5 -53.5t-60.5 -221.5v-16h363q27 0 44 -17.5 t17 -44.5v-119q0 -27 -17.5 -44t-43.5 -17h-363v-623q0 -27 -17.5 -44t-43.5 -17h-224q-27 0 -44 17t-17 44zM2089 61v1311q0 27 17.5 44.5t43.5 17.5h224q27 0 44 -17.5t17 -44.5v-1311q0 -27 -17.5 -44t-43.5 -17h-224q-27 0 -44 17t-17 44z" />
</font>
</defs>
</svg>
